<?xml version="1.0" encoding="UTF-8"?>
<svg id="Tree" xmlns="http://www.w3.org/2000/svg" viewBox="0 0 1024 1024">
  <defs>
    <style>
      .cls-1 {
        fill: #275e3b;
      }
    </style>
  </defs>
  <g id="TreeStandard">
    <path id="LogoMain" class="cls-1" d="M529.49,48.93c1.63,1.61,1.69,4.97,5.25,7.71,4.69,3.6,13.91,2.53,8.36,10.77-3.64,5.4-14.49,1.09-10.73,14.06,3.62-2.51,8.47-1.78,11.81-3.53,5.41-2.84,2.01-9.89,10.63-8.35,14.31,2.56-1.84,15.51-1.36,22.5.49,7.08,9.75,3.4,7.24,11.81-1.9,6.35-26.26.3-26.11,11.82.06,4.39,9.5,12.09,13.48,12.46,2.54.24,5.32-2.63,7.96-.85,6.05,4.09,3.78,15.15,5.09,21.05,1.1,4.92,6.42,7.26,3.22,13.42-1.06,2.04-11.5,9.1-8.35,11.78,1.23,1.05,10.63,2.84,14.14,5.96,3.26,2.91,4.39,10.64,5.94,10.6,4.69-.1.15-15.55,1.18-16.54.71-.68,17.18-.37,19.72.36,5.39,1.55,5.41,7.49,7.56,11.33,1.25,2.24,5.08,4.2,5.2,5.93.11,1.5-9.91,23.03-11.11,23.81-8.99,5.88-16.85-3.59-17.82-3.61-1.12-.02-5.26,6.73-5.72,8.51-1.36,5.27,5.24,2.5,6.61,7.1,1.28,4.32-.31,11.16,3.77,15.15,2.96,2.9,8.08,1.39,8.44,3.55,1.85,10.97-7.22,16.9-7.36,25.95-.09,5.75,6.11,3.42,7.22,7.1,2.02,6.74-9.38,12.2-9.4,14.11-.01,1.62,7.58,4.73,9.58,6.96,1.69,1.89,2,6.61,3.38,6.02,7.34-3.11-1.4-17.95,1.19-23.61,11.09,7.48,16.67-8.05,20.31-9.19,1.86-.58,10.02-.62,10.39-.26,3.49,3.48-9.14,24.03-7.08,25.97,1.05.99,12.12-2.54,13.9,3.81,4.13,14.75-5.74,9.74-13.86,13.95-4.91,2.55-14.98,14.64-13.89,20.72,1.4,7.84,8.12,7.95,8.89,9.01,1.84,2.52-10.02,27.32-12.78,30.43-4.42,4.97-12.69,3.06-15.32,9.47l31.58-6.93c3.43-2.11,5.23-14.26,7.58-14.45,1.8-.15,9.84,2.14,10.24,2.71,4.75,6.73-9.8,23.33,5.09,17.66,1.42-.54,17.78-10.24,18.57-10.98,2.1-1.95-5.28-13.31-1.18-18.88,1.73-2.35,6.98-1.73,9.66-4.5,5.53-5.72,4.85-19.88,16.13-16.24,11.21,3.61-.01,17.46,2.05,28.74,1.65,9.03,10.63,5.35,9.02,16.88-.4,2.83-13.86,2.61-14.26,8.35,8.07.74,11.31,7.52,9.11,15.02-2.24,7.61-19.22,7.8-26.62,10.92-4.61,1.94,1.7,11.36,4.48,11.52,6.28.35,10.92-17.3,23.22-13.5,2.42.75,4.05,4.63,7.16,4.15,2.28-.35,4.91-3.38,7.89-4.06,9.31-2.14,16.88-1.51,11.45,9.09-1.9,3.71-8.23,4.11-8.49,6.05-.8,5.99,5.92,12.28-2.17,16.36-9.12,4.6-43.97-2.78-49.23,3.92-1.49,1.89-1.03,9.99-5.1,12.61-.48,6.53,1.26,2.02,4,1.64,8.76-1.23,30.33-2.42,33.41,8.15,1.37,4.7-.88,15.07.61,17.11.35.48,9.99,4.5,10.87,4.67,7.85,1.52,22.98-16.62,26.39,1.94,1.36,7.4-9,11.1-12.14,18-1.97,4.33,1.98,8.33.32,10.79-.32.47-2.81,0-3.62.92-5.4,6.08-13.49,19.52-24.51,12.42-6.43-4.14,4.36-11.72-3.44-10.7-1.06,3.09-7.41,4.3-7.95,5.03-1.87,2.56,2.13,17.52-4.96,22.22-8.32,5.51-21.71-5.39-28.43,2.28-.78,7.45,9.16.45,13.15,5.85.56.76.39,7.54-1.2,8.28-14,6.18-28.95,7.62-43.5,11.03-3.42.34-3.16,6.72-5.27,6.91-.77.07-22.8-5.41-12.79,2.15,4.82,3.64,20.23,5.06,26.6,4.16,11.28-1.59,11.78-6.07,18.91-9.41,6.21-2.91,13.52-1.27,18.04-7.97,1.45-2.15,2.29-7.4,2.82-7.78.99-.71,21.22-.78,24.34-.34,1.81.26,3.42,6.54,3.68,8.47,1.64,12.15-4.98,14.38,11.92,12.9,1.68,11.52-6.74,19.75,2.33,29.62,4.69,5.11,7.9-.25,14.94,1.44,2.81.67,5.42,3.7,7.86,3.95,2.47.25,6.75-2.93,7.73-1.85.33.36,4.45,8.17,4.58,8.64,2.01,6.78-2.91,9.34-3.96,14.13-.87,3.96.18,7.89-.4,11.41-1.42,8.62-10.41,7.88-16.48,11.87-11.74,7.72-16.99,26.7-35.52,18.84l-10.6-13c-3.95,2.52-2.92,4.12-3.04,7.65-.32,9.14-1.67,29.09-9.91,33.74-2.61,1.47-8.26-4.84-7.13,2.28,9.63,10.36,10.77-2.99,16.52-9.44,13.43-15.1,18.28-2.1,26.89-3.85,2.69-.55,4.49-5.47,7.72-6.42,4.65-1.37,10.53.37,15.77-.77,2.57-.56,9.58-6.14,11.04-4.31.34.42,2.03,9.15,2.12,10.65.12,2.09-1.87,4.49-1.64,6.76.29,2.83,3.97,5.81,4.33,9.85,1.01,11.08-11.54,8.54-17.92,12.78-12.34,8.2-8.96,34.14-32.46,23.74-2.02-.89-5.58-10.92-8.75-7.07-.47.57-.26,10.47.36,12.62,1.72,5.9,16.11,9.57,4.26,16.81-1.7,1.04-16.86,4.03-11.72,8.36,1.9,1.59,8.21-2.29,10.73-2.39,7.67-.29,4.68,9.57,6.95,14.23.95,1.96,9.25,9.89,11.67,9.37,4.91-1.06,12.13-21.05,19.44-23.24,6.47-1.93,11.83,2.91,15.76,1.82,3.93-1.09,8.02-10.41,12.18-9.23,2.27.64,5.8,8.07,6,10.75.67,9.12-17.36,29.17-24.78,34.21-4.37,2.97-15.83,5.37-17.8,7.02-2.63,2.19,9.05,11.5,2.39,17.73-12.85,12.04-36.07-1.81-48.28-1.2-2.59.13-13.14,3.72-13.14,5.89,0,1.67,13.63,6.32,16.38,7.03,5.81,1.5,12.94,3.46,18.86,4.85,2.89.67,8.04-2.44,9.63-1.24.25.19,1.93,5.63,1.93,5.94,0,1.24-8.43,9.04-10.51,10.29-7.26,4.35-13.99,3.37-20.52,5.46-3.41,1.09-4.79,5.37-7.87,6.3-8.69,2.62-29.03.18-37.13-4.67-4.98-2.98-8.71-8.93-13.37-12.62-2.76-2.18-7.54-2.68-8.92-4.06-1.94-1.93-3.07-10.68-5.49-14.6-5.7-9.26-24.96-10.23-35.17-14.44-3.46-1.43-6.36-4.99-8.68-5.66-2.73-.78-15.17,3.52-17.31,5.57-5.67,5.41-.39,11.44-.09,16.74,1.56,27.35-8,61.35,2.37,87.39,7.79,19.57,34.05,14.26,50.77,17.73,37.33,7.76,78.05,21.5,100.55,25.97,40.07,7.96,72.3,17.74,129.39,16.75,45.32-.79,53.11,11.59,58.36,20.6,1.28,2.2-32.82,3.55-94.21,5.38-32.78.98-102.86,1.15-138.33-.55-57.6-2.76-116.92-2.82-144.65-3.12-73.39-.8-179.21,4.82-254.14,1.1-18.47-.92-62.52-2.67-80.99-2.21,13.65-17.68,43.19-23.14,93.83-23.08,20.66.02,70.68-7.28,111.8-12.9,42.92-5.86,81.43-25.67,101.71-31.53,6.24-1.8,23.82-6.39,25.52-12.27,1.82-6.29.21-20.4.31-28.05.07-6.07,3.92-10.51-1.13-17.64-1.54-2.18-22.95-10.84-26.52-11.41-8.24-1.3-10.64,3.28-17.17,5.5-6.8,2.31-19.32,4.44-24.4,8.15-4.38,3.19-7.43,12.65-16.93,14.28-19.13-.85-38.31-2.09-56.71-7.23-8.99,2.39-15.95,4.87-23.69-2.13-3.19-2.88-8.49-13.82-5.73-16.52.29-.28,7.01-2.29,7.77-2.11,1.95.47,3.5,3.51,5.47,3.98,1.96.47,5.88-1.88,9.04-2.04,3.24-.17,14.75.68,15.42.08,8.02-7.19-15.67-4.79-17.24-5.1-21.67-4.33,3.21-18.85,3.22-24.42,0-4.93-10.04-9.34-8.56-15.44,2.33-9.62,9.76-6.26,16.68-6.99,2.15-.23,1.38-4.56,1.18-4.71-.68-.51-4.08.19-5.9-2.3-2.47-3.39-3.5-11.27-7.19-16.52-2.3-3.27-36.54-35.44-38.91-36.67-5.58-2.9-31.82-5.28-17.32-17.4,21.56-18.01,2.34-17.26-1.19-32.68-2.86-12.47,8.04-12.81,16.88-9.69,5.95,2.1,21.94,8.15,26.99,10.79,4.79,2.5,6.91,7.87,12.48,7.58-5.27-6.5-16.4-27.71-3.35-30.63,4.48-1,10.08,10.3,14.36,11.53,3.47,1,14.71-6.13,25.56-4.44,2.23.35,14.69,6.61,15.15,7.31.91,1.39-.03,4.68.27,6.77l-15.38,4.74c-2.28,1.39,1.49,4.27,2.56,4.55,4.09,1.08,18.52.7,23.33.07,6.27-.82,14.05-5.99,19.41-6.46,6.55-.58,21.47,8.7,30.32,9.09,9.9.43,14.76-6.89,21.37-7.32,1.72-.11,10.11,2.1,10.48,2.49,1.27,1.36-1.88,6.75-1.24,9.55,1.73,7.51,21.56,12.63,9.62,25.92l-10.71,9.35c5.28,1.25,6.24-1.16,9.47-3.5,1.63-1.18,9.44-6.8,9.54-7.39,1.81-11.28-2.99-22.02,3.52-33.88,1.6-2.91,5.42-3.77,5.91-8.34,1.08-10.1-6.46-6.68-11.9-9.48-2.81-1.45-3.24-5.16-8.25-5.91-14.33-2.17-25.59,6.82-39.09,1.26-3.93-1.62-6.62-4.97-10.02-6.49-4.61-2.06-10.4-1.77-14.47-4.43-3.44-2.25-3.77-6.38-6.22-8.04-1.83-1.24-4.58-.62-6.43-1.84-.4-.26-6.25-5.91-6.53-6.3-4.45-6.3,1.64-21.34-14.54-25.76-7.47-2.04-4.49,2.34-7.81,5.5-8.49,8.06-23.02-7.23-36.35,1.17-1.78,1.12-1.21,3.74-2.98,4.86-6.93,4.36-22.81,2.45-28.65-3-1.17-1.09-1.43-3.88-2.86-5.29-7.82-7.78-15.26-14.18-16.54-26.15-1.28-11.86,5.49-8.89,6.74-10.78,4.85-7.36-8.37-7.67-6.79-12.69.51-1.64,6.74-5.33,8.65-5.55,3.56-.4,13.92,7.63,17.29,10.4,2.98,2.46,4.51,10.15,12.64,7.89,12.22-3.39,2.49-12.81,1.91-15.52-1.95-9.11,15.05-13.55,22.08-5.48,2.72,3.12,3.06,8.02,7.05,11.84,4.48,4.29,13.74,8.32,17.87,12.83,3.69,4.03,3.55,8.96,5.91,12.98,6.74,11.48,17.74,6.75,28.26,4.78,3.93-.73,4,1.35,3.53-4.66-7.41-1.58-19.46-9.16-23.71-15.29-2.16-3.11-2.23-7.32-4.58-9.59-2.38-2.3-7.4-2.29-9.08-3.9-4.53-4.33,4.26-23.26-4.17-25.49-9.4-2.48-27.18,17.61-38.82,5.87-2.48-2.5-1.98-5.99-3.54-8.27-3.56-5.19-16.51-6.87-12.96-18.94-7.24,8.51-29.56,4.88-25.6-7.87.91-2.95,5.8-4.87,4.33-9.77-1.15-3.85-8.66-.83-7.13-9.52,1.46-8.25,9.97-6.5,11.83-8.33,2.13-2.1-7.28-15.59,1.57-18.5,4.06-1.33,13.35,1.18,5.45-6.11-6.41-5.91-19.35-11.64-11.83-23.43,5.42-8.5,16.22,4.6,23.1,7.44,9.69,4,23.46,3.59,30.76,7.03,5.63,2.66,5.54,9.11,12.3,11.32,14.3,4.68,12.65-.43,11.81-12.99-5.31-1.65-14.33-1.43-18.78-3.66-3.56-1.78-12.2-7.05-16.44-9.55-16.48-9.73,2.4-13.9,2.25-21.05-.04-2.18-2.54-13.11-3.41-15.59-1.87-5.32-17.31-21.48-2.52-23.58,10.87-1.54,17.33,9.24,24.82,1.25-.12-2.01-21.65-10.79-18.87-21.22,1.27-4.77,9.11-2.36,11.8-4.76-6.15-4.09-10.93-7.93-13.2-15.36-.67-2.18.78-8.8,1.41-9.44,3.42-3.49,13.78,6.67,17.68,7.12,2.76.32,8.26-1.13,8.26-3.58,0-.61-5.19-7.82-5.97-10.52-2.67-9.21.82-19.46,3.64-28.45l-13.96-2.6c2.34-8.23-12.29-29.54.98-30.64,4.05-.33,22.66,8.79,26.05,11.89,4.66,4.24,4.62,10.38,5.84,11.89,1.06,1.32,6.08-1.09,6.89-3.75,3.06-10.1-9.46-12.94-11.26-19.06-2.08-7.06,1.71-15.96-2.59-22.94-2.04-3.31-13.4-3.57-13.59-12.11-.19-8.82,6.71-4.72,11.99-6.18,10.68-2.94-3.98-30.09,5.2-32.6,10.57-2.9,7.11,2.04,9.14,9.33,3.64,13.11,12.91,22.81,6.01,37.7,6.42,1.06,4.05-1.14,5.29-5.24,1.18-3.91,1.65-12.39,5.53-13.52,2.44-.71,11.92,1.41,12.62,2.41,2.25,3.18-4.93,19.03,1.36,18.7.92-.05,12.01-11.28,13.12-12.87,3.18-4.55.42-11.04,7.94-8.16,10.85,4.15,2.96,9.52,1.81,13.21-1.14,3.63-1.54,21.98,3.13,21.99,3.9,0,3.19-8.32,3.51-10.63,1.18-8.58.8-17.2,2.29-25.71-5.57-2.14-7.61-8.9-10.33-11.07-2.77-2.21-6.57-1.53-8-2.63-3.36-2.58-14.51-29.56.73-27.99,8.11.84,7.37,10.77,12.85,15.59,3.56,3.13,9.5,3.66,10.92,5.61,2.59,3.55.08,13.38,1.03,14.33.83.83,10.34-1.69,13.28-1.67,5.41.04,20.77,5.49,10.46-6.73-4.77-5.65-16.72-3.65-21.49-6.85-3.24-2.18-2.72-10.3-5.07-12.65-3.15-3.16-11.92-1.82-13.74-11.06-2.16-11,1.28-7.27,8.06-8.45,4.49-.78,10.47-3.63,14.42-3.58,4.41.05,9.3,5.61,12.96,2.57-4.82-7.88-12.66-4.51-19.76-8.58-2.52-1.45-23.18-19.36-24.04-21.03-.21-.41-1.33-8.87-1-9.19,3.99-3.81,15.26,1.92,16.47-3.75.59-2.79-8.04-13.85-4.74-20.05,20.91-6.05,15.28,14.01,21.12,17.86,2.87,1.9,8.01.29,11.98,2.19,3.55,1.7,12.7,19.46,16.51,15.37,7.67-8.24-25.06-22.14-27.29-25.95-2.38-4.07.95-6.8.75-10.28-.32-5.51-11.64-22.43-8.87-25.16.29-.28,6.84-2.05,7.85-1.95,8.44.79,8.44,9.34,12.29,13.77,4.32,4.98,5.04,5.51,9.44,11.71,6,8.46,10.11,8.84,17.62,1.26-2.49-4.52-11.14-6.83-13.04-10.56-2.35-4.62.21-10.87-2.15-14.38-2.51-3.72-10.06-1.58-10.77-2.23-2.51-2.29,6.42-8.34,4.72-11.8l-11.68-2.51-.13-11.67,14.15,1.18c-6.95-7-15.47-3.93-14.12-16.42.61-5.61,2.25-10.17,7.98-8.14,10.65,3.79,7.21,16.16,8.76,18.42.33.48,5.54,1.39,7.72,2.88,2.83,1.94,6.79,7.63,9.73,6.8,1.29-.36,8.29-10.7,8.01-12.59-1.81-12.13-18.96-5.07-15.75-23.58,1.42-8.19,15.57-12.81,20.26-8.18ZM513.41,225.54c.47-.51,4.49-11.46,4.73-13.02.48-3.16.54-29.72-7.04-22.38-.44.42,2.93,6.11-1.19,11.8-2.43,3.35-10.91,4.46-10.75,10.62.13,5.02,11.18,16.36,14.25,12.98ZM565.23,199.77c-.64-.87-7.61-2.35-9.87-2.18-10.26.75-5.91,7.01-1.36,12.24,9.94,11.44,14.45-5.68,11.23-10.05ZM537.08,204.29c-14.45-3.67-4.52,16.32,0,11.81v-11.81ZM563.07,258.61c-1.19-5.08-10.57-5.27-9.42-10.57.56-2.6,11.64-7.19,5.98-15.52-3.08-4.54-15.15-.2-20.18-4.61-1.19,4.52,3.9,7.13,4.25,10.95.19,2.12-1.55,4.41-1.57,6.76-.02,2.32,1.95,4.75,1.6,6.77-.82,4.8-11.75,12.89-13.29,19.65-2.5,10.99,4.44,24.4,1.92,36.18,17.43-4.51,10.46-8.63,9.43-20.27-.75-8.5,9.2-12.93,16.54-12.81-.83-5.11-10.53-3.29-13.14-6.92-3.3-4.6-1.09-11.39,4.88-12.11,5.19-.62,8.26,2.47,12.99,2.49ZM511.09,289.33c1.43-11.05,3.37-21.81,2.36-33.06l-7.25,24.82,4.89,8.25ZM480.38,305.85c3.23-.42,4.93,1.84,7.18,3.46s5.4,6.05,6.99.08c1.41-5.28-13.24-12.25-14.17-3.55ZM560.54,310.7c-2.95-3.49-15.44,8.82-14,14.06,8.27-2.11,15.47,3.86,22.58,4.67,8.14.93,13.98-4.03,22.29.05.57-.5-5.39-10.74-8.58-11.63-5.06-1.42-11.66,8.11-17.14,4.27-.87-.61-4.16-10.24-5.15-11.41ZM468.57,320.04c-1.02-1.02-11.94-2.52-9.43,5.89,2.66,8.91,13.66-1.66,9.43-5.89ZM598.02,350.28c4.75-4.78,2.54-15.83-4.24-18.43,1.39,11.22-.99,12.76-9.45,17.84-3.04,1.82-6.04-.61-4.72,5.78,4.6-3.36,15-1.76,18.41-5.19ZM486.29,343.68c-5.55,4.25-3.05,4.06-1.19,8.26,1.36,3.07,3.99,11.9,8.26,10.61,5.26-1.59,1.92-5.16.78-7.84-1.89-4.46-4.01-7.97-7.86-11.03ZM418.97,355.48h-9.44c-3.08,14.57,13.34,3.9,9.44,0ZM459.71,364.36c.33.33,7.22,5.24,7.69,5.26,2.92.11,6.15-7.38-.29-11.5-9.83-6.29-14.5-1-7.39,6.24ZM536.6,358.32c-1.51-1.55-10.27-3.87-11.33-2.85l7.15,23.57c3.6,1.56,11.11-2.79,11.32-5.82.05-.82-6.56-14.31-7.13-14.9ZM411.89,390.92c-.4-.29-8.28-4.33-8.75-4.47-6.19-1.87-14.26,5.54-10.1,9.07,1.95,1.65,12.04,3.13,15.03,2.2,2.93-.91,5.12-5.88,3.82-6.81ZM444.95,397.98v-9.44s-11.8,4.74-11.8,4.74c.26,5.04,10.72,5.85,11.8,4.71ZM503.75,388.83c-3.25-2.38-17.07,3.24-20.99,5.61,4.36,2.05,3.55,9.95,8.08,8.11,2.2-.9,3.41-4.41,7.33-4.72,3.27-.27,9.38,3.67,10.56,2.52.81-.8-4.48-11.15-4.98-11.52ZM553.59,400.31c6.26-3.95-14.57-13.22-20.09-2.37-3.26,6.41.41,10.11,1.08,15.54.38,3.11-.31,12.34.14,12.85,3.54,3.95,4.1-1.26,5.18-3.05,3.92-6.49,4.24-16.24,8.98-21.33,2.28-2.45,4.17-1.31,4.7-1.64ZM645.73,423.97c.58-5.05,10.91-16.71,7.09-21.26-2.22-2.64-21.76,14.94-7.09,21.26ZM457.43,437.46c-1.06-.81-1.39-3.63-3.08-5.07-2.39-2.04-10.52-8.22-12.97-8.54-6.79-.89-11.49,3.59-16.9,4.21-2.1.24-4.51-1.65-6.38-1.32-3.84.69-6.73,9.09-12.08,9.1-7.65.01-13.92-12.47-22.49-11.87,2.35,3.28,8.77,11.53,11.77,13.02,4.97,2.46,12.84-.61,15.52,3.38l1.28,18.8c17.77,2.6,15.14,21.71-3.34,16.32-4.53-1.32-17.98-15.07-13.07,1.27,3.21,10.7,16.15,8.14,24.3,8.75,8.73.66,8.03.73,16.89-.16,2.95-.3,13.17,5.77,14.64,7.61,2.12,2.65,2.24,13.46,6.45,18.37,2.73,3.18,13.88,10.71,15.33,3.53.78-3.86-6.96-11.15-3.65-17.68,5.04-9.93,21.59-.15,30.66-2.2,4.07.72,17.78,3.93,17.84,8.12.04,2.83-11.68,8.52-13.01,10.59-.66,1.02-3.52,12.2-3.37,12.85.67,2.93,5.33,2.85,6.44,4.21,3.18,3.91,7.67,29.64,2.87,34.93l7.08.02c.94-5.58-2.75-26.66,3.57-28.35,4.91-1.31,7.44,4.07,11.77,4.74,2.24.35,12.54.43,13.01-.02.8-.78.34-6.78-2.28-8.34-5.37-3.22-13.86,1.46-21.42-6.93-8.74-9.7-2.71-17.81-2.18-28.32.14-2.76.28-33.49-4.82-27.27l-.02,16.54c-10.25-2.69-26.78,0-34.34-7-2.58-2.39-3.4-6.14-5.86-8.31-5.19-4.57-23.78-8.19-23.61-16.53.02-.84,2.13-8,2.42-8.32,4.73-5.28,17.45,13.09,20.31,16.29,3.82.66,25.93,10.72,26.92,9.69.93-.98-1.27-9.22.34-11.49,1.33-1.86,17.93-7.13,16.2-13.3-.23-.81-12.54-10.05-13.35-10.28-3.49-.99-7.43.18-11.01-.8-3.78-1.03-17.34-14.16-20.51-11.37-3.55,3.13,23.46,20.8,24.85,23.56,5.38,10.66-5.16,9.73-12.85,5.76-6.3-3.25-22.06-13.75-27.88-18.2ZM541.81,454.67c-5.2-5.42,8.55-16.38,11.8-20.07,9.63-10.91,2.56-9.53-4.08-2.9-3.52,3.51-12.56,17.99-15.35,20.08-2.38,1.79-8.46.76-11.26,6.46-2.98,6.05,7.71,1.47,11.05,2.9,7.39,3.17,6.19,10.8,17.2,4.07,6.08-3.71,10.6-14.88,3.64-15.23-.69-.03-10.15,7.66-13,4.69ZM583.39,459.6c-4.92.77-10.34,8.49-14.76,11.26-3.8,2.38-11.56,6.39-15.68,7.95-7.56,2.85-19.18.02-15.85,12.47,1.24,4.62,3.78,2.31,6.2,1.53,10.22-3.28,20.49-6.93,29.06-13.49,2.45-1.87,16.65-15.21,16.67-16.38.01-.92-3.19-3.73-5.64-3.34ZM619.75,468.86c-8.31-.93-18.81,1.95-23.62,9.43,5.75-.92,11.62-3.34,17.13-5.31,2.5-.9,7.04-.79,6.49-4.11ZM622.12,480.67c-1.81-1.9-15.95,3.38-14.16,8.25,3.27,8.94,18.92-3.25,14.16-8.25ZM685.9,506.64l-16.53-7.08c-1.14,7.06,1.7,3.77,5.66,4.87,3.6.99,7,2.65,10.86,2.21ZM570.15,504.29c-13.91-1.5-29.67,9.63-15.33,21.24l7.11-14.12,8.22-7.12ZM423.7,509.01c-3.42,3.04,11.84,12.4,14,13.17,3.48,1.23,7.33-.55,7.23-2.54-.18-3.73-19.58-12.09-21.23-10.62ZM638.75,511.47c-1.27,1.15-.19,10.75,3.47,11.71,3.71.97,9.89-3.2,10.52-6.11,1.27-5.9-9.3-9.83-13.99-5.6ZM374.05,523.23c-.39-.38-9.02-2.66-10.58-2.58-12.7.7.52,15.36,2.96,20.81,1.73,3.88,2.58,13.46,5.79,16.65,2.26,2.25,10.87,3.73,14.94,7.5,7.53,6.95,5.94,20.47,22.36,16.61-6.41-5.05-13.73-21-18.92-24.77-4.36-3.17-17.03-3.46-20.23-8.28-3.49-5.25,5.51-24.14,3.68-25.94ZM584.33,542.07c.76-.78-4.37-5.59-5.38-7.83-.82-1.83.68-8.48-2.89-8.67-8.75-.47,4.29,20.57,8.27,16.5ZM499.3,558.62c-14.21,1.34-11.75-16.18-15.34-23.65-3.47-7.21-14.55-6.28-12.68,3.16.21,1.07,9.3,16.93,10.33,18.09,2.44,2.77,19.89,12.91,17.7,2.4ZM626.85,558.6c1.4-1.14-2.01-7.06-3.54-7.04-1.55.02-8.98,6.17-10.62,8.24,4.07,5.55,3.91,2.07,7.79.68,1.8-.64,6.11-1.67,6.37-1.88ZM447.26,556.36c-1.76-1.49-15.37-3.63-16.32-2.31,1.24,4.49-7.48,13.32-4.87,16.38.86,1.01,8.89-6.02,11.06-6.65,3.13-.9,9.62.02,10.2-.44.27-.22.19-6.75-.08-6.97ZM546.54,565.69c9.03-2.81,19.88,3.9,27.2,3.76,2.78-.06,17.54-5.01,17.66-7.29.36-7.14-13.13.8-15.38,1.12-8.79,1.28-15.14-2.14-21.26-2.15-1.77,0-8.8,1.38-8.21,4.56ZM369.36,577.5c1.12-1.24.15-8.26-2.32-10.66-1.22-1.18-8.34-4.63-9.48-3.5-2.45,2.43,8.55,17.76,11.8,14.16ZM513.46,575.14c-2.66-2.73-18.66,2.61-22.98,4.25-2.76,1.05-6.11,2.25-3,5.2.94.9,6.58-2.66,10.13-2.06,5.25.88,11.54,9.13,12.31,9.13,4.08.01,4.47-15.57,3.55-16.52ZM440.23,603.5c-3.62,4.28-16.48-7.2-20.08-9.45-5.47,9.37,11,11.83,15.53,17.54,3.32,4.19,2.22,13.93,6.86,16.75,4.83,2.94,13.29,4.77,14.31-2.36,2.13-14.89-6.81-12.1-9.68-16.93-2.14-3.61-3.21-10.7-4.59-15.01-4.98-.53-1.12,8-2.35,9.45ZM586.7,596.41c-9.79-2.44-20.99,2.83-29.53,2.54-4.44-.15-14.24-6.14-15.35-4.91-2.18,2.41.26,12.67-5.92,11.82-5.46-.75-9.67-13.36-12.98-9.45-1.8,2.12-.22,15.26,4.67,17.77,9.95,5.09,22.21-10.18,32.99-11.99,3.9-.65,7.47,3.92,13.11,3.85,4.44-.06,8.45-3.06,13.01-2.58v-7.04ZM678.83,605.86c-.65-.42-5.25.39-7.81-.41-2.71-.85-7.81-7.82-8.73-6.68-.42.52-2.65,8.86-2.23,10.32,1.67,5.84,14.28,7.36,18.7,3.75.27-.22.36-6.79.07-6.98ZM655.08,622.51c-.7-.7-15.13-4.93-17.4-4.81-5.18.28-13.48,3.57-19.25,4.54-4.66.78-9.61-.55-14.04.13-3.7.57-5.22,3.71-7.51,4.4-7.58,2.28-12.62-4.89-18.89-6.3-7.07-1.59-16.51.21-21.98,5.47,5.24,5.73,13.92,4.8,20.58,7.75,4.23,1.87,8.63,7.6,13.6,7.65,1.35.01,3.39-9.1,7-11.98,2.29-1.83,8.08-4.17,10.9-3.51,10.82,2.56,6.02,22.19,19.94,24.19l24.92-16.9c2.34-1.63,3.3-9.47,2.14-10.62ZM537.07,631.84c-11.46,13.28-27.83-5.89-34.21-4.73-3.61.66-4.67,10.75-3.57,11.82,1.1,1.06,6.32-1.4,8.25-1.27,10.76.67,27.89,13.6,30.69,13.1,6.53-1.17-.64-7.58-1.17-10.63-.46-2.65.16-5.58,0-8.27ZM668.95,664.52c3.15-3.2,2.7-6.62-1.02-8.81-6.4-3.76-18.35-6.32-25.61-5.1-2.28.38-.92,4.8-2.45,7.18-2.11,3.29-10.43,3.03-8.3,10.65.81,2.91,5.05,3.81,8.09,3.52,4.74-.45,26.94-5.05,29.29-7.44ZM496.92,705.05c-5.51-7.06-13.86-9.53-20.13-16.47-9.7-10.72-14.74-27.31-27.1-35.49l17.08,34.87c12.07,2.58,16.71,17.97,30.16,17.08ZM504,664.91c-.64-.63-6.8,2.63-9.43-.01.24,1.9-.44,6.71-.01,7.1.24.21,5.59,2.33,5.91,2.34,2.38.1,4.98-8,3.54-9.42ZM574.87,674.35l-14.14,8.27c4.35,5.47,3.39,2.56,7.21.15,2.11-1.33,10.11-5.33,6.93-8.41ZM598.49,690.89c-3.53-4.14-5.09,3.14-5.94,4.57-1,1.68-5.53,4.98-3.49,7.24.55.61,13.65-6.85,9.43-11.81ZM515.81,714.51c1.05-5.57,5.6-11.23-2.34-14.17l-2.37,14.16h4.71ZM607.95,731.03c-4.64-8.59-17.47-7.4-25.98-9.43l8.49,11.6,17.49-2.17ZM584.32,742.86c-5.08-.76-8.06,4.67-12.92,4.62-6.26-.06-18.16-7.43-22.51,2.45,7.85,2.15,12.98,8.14,21.89,6.72,8.54-1.36,16.51-4.32,13.54-13.78ZM444.95,759.38c3.94-3.41-10.97-12.2-14.16-9.44-3.94,3.41,10.97,12.2,14.16,9.44ZM345.74,766.47c-3.72-8.93-28.65-22.25-14.06-6.01l14.06,6.01ZM652.83,766.48c-3.61-3.79-16.43-.6-21.29,1.15-4,1.44-32.95,17.02-33.02,18.92-.11,2.93,6.95,4.25,10.31,3.24,6.02-1.8,6.5-12.89,14.48-13.95,4.61-.61,24.32,2.34,26.94-.13.47-.45,3.14-8.65,2.58-9.24ZM454.4,799.54c-3.06-22.24-17.36-5.73-26.68-7.39-9.42-1.68-11.92-12.8-17.41-15.83-6.12-3.37-16.08-3.94-22.73-5.62-6.43-1.62-13.76-9.24-20.56-.68,5.94,9.62,15.75,3.08,19.79,3.86,2.05.4,4.9,4.79,7.7,6.43,10.6,6.2,22.61,7.94,19.74,23.97l25.99-2.36v-9.48c2.26.34,8.84-.53,9.33.11,1.53,2.04-3.06,8.83,4.83,6.98ZM584.32,780.65c-14.34-2.62-11.94,7.49,0,7.08v-7.08ZM579.6,801.93c-10.15-1.04-24.43-11.71-33.03-13.22-3.36-.59-5.21.93-6.53.83-2.95-.21-9.65-2.13-10.03-1.8-2,1.7,1.04,6.11,5.45,6.61,4.63.52,8.52-1.49,14.58.32,9.45,2.82,17.29,11.73,25.97,12.04,4.73.17,3.8-.46,3.6-4.78ZM650.47,799.54c.83-8.2-10.08-9.95-14.17-3.53-.86,1.35,2.81.54,4.54,2.99.54.76-.25,3.1,1.53,3.08l8.1-2.54ZM494.43,811.27c1.75-2.26,2.72-10.74,2.48-14.09l-9.43,10.64c-1.88,5.41,6.66,3.81,6.95,3.45ZM555.98,818.42c.81-4.26-2-6.03-5.37-7.6-8.26-3.85-17.9-2.76-25.48-5.23-5.53-1.8-10.02-11.28-12.94.91-1.28,5.31,5.85,13.35,6.01,19.03,7.95,1.88,3.4-5.31,4.71-7.1,2.07-2.83,8.91,6.88,13.02,7.23,7.18.61,13.5-5.94,20.04-7.24ZM355.2,809c-1.89,1.88,3.53,14.13,5.89,14.11,1.1,0,10.15-6.59,10.64-8.23,2.06-6.92-15.37-7.03-16.52-5.88ZM659.91,827.88c2.47-2.41-7.07-16.43-11.8-11.8-2.47,2.41,7.07,16.43,11.8,11.8ZM440.22,818.43c-1.3-1.79-21.66,5.2-24.47,6.94-2.2,1.36-1.86,4.84-3.75,6.09-2.47,1.64-6.5.85-9.55,2.34-3.01,1.48-5.29,7.07-8.66,8.03-5.16,1.48-9.13-4.08-11.46-3.95-1,.06-16.35,9.06-15.33,12.42.88,2.89,18.61,6.54,22.43,10.64,13.4,1.73,25.77-4.16,38.98-4.73.5-4.05-8.78-2.82-7.08-8.24,2.29-7.31,20.45-7.62,20.7-16.88.04-1.43-1.44-12.15-1.81-12.67ZM494.16,828.3c-2.19-2.31-18.01-.95-21.98-.35-14.07,2.11-12.1,16.26-19.06,25.82-4.22,5.79-21.74,13-19.98,20.15,1.17,4.75,4.63,1.95,6.39,1.79,5.33-.5,10.55-1.21,15.92-.42,5.56-.1,37.71,8.34,39.11,6.93.79-.79-.47-17.97.12-22.32.74-5.56,4.99-10.95,4.62-16.49-.13-1.94-4.23-14.15-5.13-15.1ZM697.71,834.97c-.6-11.62-11.24-6.77-11.8,2.37l11.8-2.37ZM400.07,882.23c-5.16.2-6.98-5.64-11.8-4.73v7.08s11.8,0,11.8,0v-2.34Z"/>
  </g>
</svg>