<?xml version="1.0" encoding="UTF-8"?>
<svg id="Arrow" xmlns="http://www.w3.org/2000/svg" viewBox="0 0 1024 1024">
  <g id="Arrow-2" data-name="Arrow">
    <path d="M926,436.69c-9.3,15.03-29.02,19.68-44.05,10.39l-31.35-19.38c6.81,27.37,10.24,55.56,10.24,84.3,0,47.08-9.23,92.77-27.43,135.79-17.57,41.55-42.72,78.85-74.74,110.88-32.03,32.02-69.33,57.17-110.88,74.74-43.02,18.2-88.71,27.43-135.79,27.43s-92.77-9.23-135.79-27.43c-41.55-17.57-78.85-42.72-110.88-74.74-32.02-32.03-57.17-69.33-74.74-110.88-18.2-43.02-27.43-88.71-27.43-135.79s9.23-92.77,27.43-135.79c17.57-41.55,42.72-78.85,74.74-110.88,32.03-32.02,69.33-57.17,110.88-74.74,43.02-18.2,88.71-27.43,135.79-27.43,42.43,0,83.9,7.54,123.26,22.41,16.53,6.25,24.87,24.72,18.63,41.25-6.25,16.53-24.71,24.87-41.25,18.62-32.11-12.13-65.97-18.28-100.64-18.28-76.08,0-147.61,29.63-201.41,83.43s-83.43,125.33-83.43,201.41,29.63,147.61,83.43,201.41c53.8,53.8,125.33,83.43,201.41,83.43s147.61-29.63,201.41-83.43c53.8-53.8,83.43-125.33,83.43-201.41,0-21.77-2.4-43.14-7.17-63.94l-15.06,34.02c-5.29,11.94-17,19.05-29.28,19.05-4.33,0-8.73-.88-12.94-2.75-16.16-7.15-23.46-26.05-16.3-42.21l50.09-113.16c3.75-8.46,10.97-14.88,19.8-17.62,8.84-2.73,18.43-1.51,26.29,3.36l103.34,63.89c15.03,9.3,19.68,29.02,10.39,44.05Z"/>
  </g>
</svg>